# xmcd CD database file
#
# Track frame offsets:
#	150
#	23317
#	35843
#	44917
#	64015
#	79528
#	97288
#	114364
#	132357
#	155476
#	172094
#	184335
#	193823
#
# Disc length: 2764 seconds
#
# Revision: 1
# Processed by: cddbd v1.5.1PL2 Copyright (c) Steve Scherf et al.
# Submitted via: CDex 1.51
#
DISCID=b80aca0d
DTITLE=PINK CLOUD - Plant Blend
DYEAR=1984
DGENRE=Rock
TTITLE0=Open Your Eyes
TTITLE1=News
TTITLE2=去年の雨
TTITLE3=Last Night
TTITLE4=Give Me Your Smile
TTITLE5=Wasted
TTITLE6=In The Space
TTITLE7=Shadow
TTITLE8=Blue Lady
TTITLE9=Love To "M"
TTITLE10=B-Y
TTITLE11=Sausalito
TTITLE12=Sugar Baby Game
EXTD=YEAR: 1984
EXTT0=
EXTT1=
EXTT2=
EXTT3=
EXTT4=
EXTT5=
EXTT6=
EXTT7=
EXTT8=
EXTT9=
EXTT10=
EXTT11=
EXTT12=
PLAYORDER=
